<svg xmlns="http://www.w3.org/2000/svg" version="1.0" viewBox="0 0 912 912"><path d="M287.8 224.6c-4.9 2.6-7 9.1-4.8 14.8.5 1.4 6.3 7.8 13 14.4 6.6 6.5 12 12.1 12 12.5 0 .3-1.3 2.7-2.9 5.3-4.5 7-9 20.4-11.1 33.3-2.9 17.1-4 39.3-4 79.8 0 33.6-.1 36.2-1.7 36.7-2.8.9-6.3 6.9-6.3 10.5 0 4 2.5 8.5 5.7 10.2 1.3.7 2.3 1.9 2.3 2.8.1 6.3 2.2 33.1 3.1 39.6 2.9 20.9 10.2 38.8 20.6 50.4 10 11.2 26.2 20 43.6 23.7 19.4 4 30.5 4.6 92.6 5l60.4.4 1.8 2.8c1.7 2.9 6.3 5.2 10.3 5.2 3.3 0 8.7-3.8 9.9-7 1-2.7 1.6-2.9 9.6-4 14.3-1.9 25.1-5 36-10.2l10.4-4.9 12.6 12.4c14.1 14 16.8 15.4 23.5 12.2 4.8-2.3 7-6.5 6.3-12.3-.5-4.5-1.7-5.7-164.3-168.4-90.2-90.2-165.1-164.6-166.6-165.4-3.4-1.8-8.5-1.7-12 .2zm207.9 235.3c-2.3 1.3-6.8 4.4-10 6.8-3.1 2.3-6 4.3-6.3 4.3-.3 0-4.2-2.9-8.7-6.3-23.5-18.2-51-31.8-79.6-39.2-19.4-5.1-31.4-6.7-54.9-7.2l-22.2-.6v-26.1c.1-60.6 3-89.9 10.2-104l2-3.9 86.8 86.8 86.9 86.9-4.2 2.5zM363 444.5c58.8 9.1 108.9 41.9 134 87.6l3.7 6.6-19.5.7c-22.5.8-75.6 0-94.7-1.5-28.4-2.2-43.2-7.5-54.2-19.3-8.7-9.3-12.3-18.8-15.7-41.6-.3-1.9-.9-10.7-1.2-19.4l-.7-15.9 18.9.6c10.4.3 23.6 1.3 29.4 2.2zm182.4 58.4 25 25-5.7 2.5c-6.3 2.8-20.6 6-30.9 7.1l-6.6.6-4.5-9.3c-5.6-11.5-14.1-25.1-20.7-33-2.7-3.3-5-6.4-5-6.8 0-2.5 19.7-13.3 22-12 .8.5 12.7 12.1 26.4 25.9zM380.3 232.6c-16.2 1.5-20.4 2.9-23.3 7.6-3.8 6.3-1.4 13.9 5.4 16.8 3.8 1.6 4.9 1.6 14.1.3 12.2-1.7 125.6-2.7 145.9-1.2 24.3 1.7 39.3 5.3 49.2 11.7 18 11.7 24.1 27.7 26.4 69.4 1 18.8 1.3 105.1.4 110.9l-.6 3.5-6.3-.9c-5.1-.7-6.9-.6-9.8.8-4.7 2.2-7.2 7-6.4 12.6.8 5.8 4.7 9.4 11.3 10.3 2.7.4 8.2 2.6 12.3 4.8 11.2 6.1 17.1 5.1 21.6-3.8 1.9-3.8 2-6.2 2.3-68.4.4-69.6-.5-89.7-4.8-109-3.8-17.1-10.9-30.8-21.1-40.9-15.3-15.2-33.9-22-67.4-25-16.5-1.4-132.7-1.1-149.2.5z"/><path d="M516.3 290.1c-10.6 4.1-19.7 15.2-22.3 27-5.3 24.1 17.8 47.8 41.8 43 12.1-2.4 21.9-9.8 27.3-20.8 2.1-4.1 2.4-6.3 2.4-15.3 0-9.6-.2-11-2.8-15.8-4-7.5-8.7-12.4-15.9-16.3-5.7-3-7.2-3.3-15.8-3.6-7.7-.3-10.5.1-14.7 1.8zm21.3 25.2c4.6 4.2 5.6 10 2.5 15-2.5 4-5.8 5.7-11.2 5.7-3.3 0-4.8-.7-7.5-3.4-2.9-2.9-3.4-4.1-3.4-8 0-7.7 4.7-12.5 12.3-12.6 2.9 0 4.6.8 7.3 3.3zM194.7 654.6c-.4.4-.7 8.5-.7 18.1V690h10l-.2-17.8-.3-17.7-4-.3c-2.3-.2-4.4 0-4.8.4zM212 672v18h9v-18.5l4.6 7.7c6.1 10.3 7.4 10.3 13.4 0l4.5-7.7.3 9.2.3 9.3h8.9v-36h-4c-3.9 0-3.9 0-9.6 9.7-3.2 5.4-6.1 10.2-6.4 10.6-.4.5-3.5-3.9-7-9.7-6.2-10.6-6.2-10.6-10.1-10.6H212v18zm52.6-.9c-4.2 9.4-7.6 17.5-7.6 18s2 .9 4.5.9c4.2 0 4.6-.2 5.9-3.5l1.5-3.5h15.7l1.3 3.5c1.2 3.4 1.4 3.5 6.1 3.5 4.3 0 4.8-.2 4.3-1.8-.4-.9-3.9-8.9-7.9-17.7l-7.2-16-4.5-.3-4.4-.3-7.7 17.2zm15.8 2.5c.6 1.9.3 2.1-3.6 2-4.8-.1-4.7.1-2.3-6.3l1.8-4.6 1.7 3.4c1 1.9 2 4.3 2.4 5.5zm27.6-17.4c-8.2 4.2-11.9 13.6-8.6 22.3 4.3 11 17.8 15.5 29.5 9.7l3.6-1.7v-15l-4.2-.3-4.3-.3v5.5c0 5.2-.1 5.5-3 6.1-4 .9-9.5-1-11.4-4-.9-1.3-1.6-4.3-1.6-6.5 0-6 4.2-10 10.3-10 2.9 0 5.3.7 6.9 2l2.5 1.9 2.8-2.9c3.2-3.3 2.8-4.3-2.5-7-5.5-2.8-14.2-2.7-20 .2zm32.7-1.5c-.4.3-.7 8.4-.7 18V690h29v-7h-19v-6.9l7.8-.3 7.7-.3.3-3.8.3-3.7H350v-6h18v-8h-13.3c-7.4 0-13.7.3-14 .7zM391 672v18h8.9l.3-9.6.3-9.6 7.8 9.6c7.5 9.2 8 9.6 11.8 9.6h3.9v-36h-9v9.5c0 5.2-.3 9.5-.7 9.5-.5-.1-4.2-4.3-8.3-9.5-7-8.8-7.7-9.4-11.2-9.5H391v18zm49.2-15.9c-11 5.5-13.2 20.1-4.3 29 7.7 7.7 20.5 7.7 28.2 0 8.9-8.9 6.7-23.6-4.3-29-5.9-2.8-13.9-2.8-19.6 0zm16.9 8.8c2.3 2.3 2.9 3.8 2.9 7.1 0 7.8-6.2 12.4-13.4 10-10.7-3.5-7.9-20 3.4-20 3.3 0 4.8.6 7.1 2.9zm14.3-9.5c-.3.8-.4 2.5-.2 3.8.3 2.1.9 2.3 6.1 2.6l5.7.3V690h9v-28h11v-8h-15.5c-12.6 0-15.7.3-16.1 1.4zM523 672v18h10v-11.9l7.8-.3 7.7-.3.3-3.8.3-3.7H533v-8h18v-8h-28v18zm40.8-16c-7.1 3.9-10.6 11.2-9.3 19.6.5 3.8 1.6 5.7 4.8 9 7.7 7.7 19.7 8.5 27.7 1.7 9.2-7.7 8.3-22.4-1.7-29.3-5-3.4-16.1-3.9-21.5-1zm17.3 8.9c8.1 8.1-1.8 21.9-11.9 16.7-4-2-5.4-4.8-5.4-10 .1-8.8 11-13 17.3-6.7zm18.2-9.4c-.3.9-.4 6.7-.1 12.9.5 12.3 1.8 16 7.1 20 4.2 3.1 14.9 3 19.5-.2 5.4-3.9 6.2-6.6 6.2-21.2v-13h-9v12c0 11.5-.1 12.2-2.5 14.5-3 3-5.4 3.1-8.9.4-2.6-2-2.6-2.2-2.6-14.5V654h-4.5c-3.2 0-4.7.5-5.2 1.5zM641 672v18h8.9l.3-9.4.3-9.5 7.8 9.5c7.4 9 7.9 9.4 11.7 9.4h4v-36h-9v9.5c0 5.2-.3 9.5-.7 9.5-.5 0-4.2-4.3-8.3-9.5-7-8.8-7.7-9.4-11.2-9.4l-3.8-.1v18zm41.8-17.4c-.5.4-.8 8.5-.8 18.1V690h11.5c9.6 0 12.3-.3 15.4-2 9.8-5 12.8-16.7 6.6-26.1-3.6-5.6-8.2-7.3-21-7.7-6-.2-11.3 0-11.7.4zm23.9 10.8c3.3 3.9 3.2 10.4-.3 13.9-2 2-3.7 2.6-8.5 2.9l-5.9.3v-20.7l6.2.4c5.1.4 6.5.9 8.5 3.2z"/></svg>